<?xml version="1.0" encoding="UTF-8" standalone="no"?>
<!-- Created with Inkscape (http://www.inkscape.org/) -->
<!--Abendiix CC0 - https://abendiix.com-->
<svg
   width="13"
   height="13"
   viewBox="0 0 3.4395834 3.4395834"
   version="1.1"
   id="svg1"
   inkscape:version="1.3.2 (091e20ef0f, 2023-11-25, custom)"
   sodipodi:docname="background_icon.svg"
   xmlns:inkscape="http://www.inkscape.org/namespaces/inkscape"
   xmlns:sodipodi="http://sodipodi.sourceforge.net/DTD/sodipodi-0.dtd"
   xmlns="http://www.w3.org/2000/svg"
   xmlns:svg="http://www.w3.org/2000/svg">
  <sodipodi:namedview
     id="namedview1"
     pagecolor="#ffffff"
     bordercolor="#000000"
     borderopacity="0.25"
     inkscape:showpageshadow="2"
     inkscape:pageopacity="0.0"
     inkscape:pagecheckerboard="0"
     inkscape:deskcolor="#d1d1d1"
     inkscape:document-units="mm"
     inkscape:zoom="33.524579"
     inkscape:cx="6.0552587"
     inkscape:cy="6.0552587"
     inkscape:window-width="1536"
     inkscape:window-height="792"
     inkscape:window-x="0"
     inkscape:window-y="0"
     inkscape:window-maximized="1"
     inkscape:current-layer="layer1" />
  <defs
     id="defs1" />
  <g
     inkscape:label="Layer 1"
     inkscape:groupmode="layer"
     id="layer1">
    <path
       d="M 1.3229166,2.1166669 V 2.3812503 H 1.5875 V 2.1166669 Z"
       style="fill:#ffffff;fill-opacity:1;stroke-width:0.264583"
       id="path229"
       inkscape:label="drawing8" />
    <path
       d="M 1.3229166,2.1166669 V 2.3812503 H 1.5875 V 2.1166669 Z"
       style="fill:#ffffff;fill-opacity:1;stroke-width:0.264583"
       id="path229-8"
       inkscape:label="drawing8" />
    <path
       d="M 1.8520833,1.8520836 V 2.1166669 H 2.1166666 V 1.8520836 Z"
       style="fill:#ffffff;fill-opacity:1;stroke-width:0.264583"
       id="path226-3"
       inkscape:label="drawing7" />
    <path
       d="M 1.5875,1.5875003 V 1.8520836 H 1.8520833 V 1.5875003 Z"
       style="fill:#ffffff;fill-opacity:1;stroke-width:0.264583"
       id="path226"
       inkscape:label="drawing6" />
    <path
       d="M 0.79375002,1.8520836 H 1.0583333 V 1.5875003 H 0.79375002 Z"
       style="fill:#ffffff;fill-opacity:1;stroke-width:0.264583"
       id="path228"
       inkscape:label="drawing5" />
    <path
       d="M 1.0583333,1.3229169 V 1.5875003 H 1.3229166 1.5875 V 1.3229169 H 1.3229166 Z"
       style="fill:#ffffff;fill-opacity:1;stroke-width:0.264583"
       id="path227"
       inkscape:label="drawing4" />
    <path
       d="M 1.3229166,0.79375003 V 1.0583336 H 1.5875 1.8520833 V 0.79375003 H 1.5875 Z"
       style="fill:#ffffff;fill-opacity:1;stroke-width:0.264583"
       id="path223"
       inkscape:label="drawing3" />
    <path
       d="M 0.79375002,0.79375003 V 1.0583336 H 1.0583333 V 0.79375003 Z"
       style="fill:#ffffff;fill-opacity:1;stroke-width:0.264583"
       id="path222"
       inkscape:label="drawing2" />
    <path
       d="M 0.26458333,0.26458333 V 0.52916666 0.79375003 1.0583336 1.3229169 1.5875003 1.8520836 2.1166669 2.3812503 2.6458336 2.9104169 3.1750002 H 0.52916666 0.79375002 1.0583333 1.3229166 1.5875 1.8520833 2.1166666 2.38125 2.6458333 2.9104166 3.1749999 V 2.9104169 2.6458336 2.3812503 2.1166669 1.8520836 1.5875003 1.3229169 1.0583336 0.79375003 0.52916666 0.26458333 H 2.9104166 2.6458333 2.38125 2.1166666 1.8520833 1.5875 1.3229166 1.0583333 0.79375002 0.52916666 Z M 0.52916666,0.52916666 H 0.79375002 1.0583333 1.3229166 1.5875 1.8520833 2.1166666 V 0.79375003 1.0583336 H 2.38125 V 0.79375003 0.52916666 H 2.6458333 2.9104166 V 0.79375003 1.0583336 H 2.6458333 2.38125 V 1.3229169 H 2.6458333 2.9104166 V 1.5875003 1.8520836 2.1166669 H 2.6458333 2.38125 2.1166666 V 2.3812503 H 2.38125 2.6458333 2.9104166 V 2.6458336 2.9104169 H 2.6458333 2.38125 2.1166666 1.8520833 1.5875 1.3229166 1.0583333 0.79375002 0.52916666 V 2.6458336 2.3812503 2.1166669 H 0.79375002 V 1.8520836 H 0.52916666 V 1.5875003 1.3229169 1.0583336 0.79375003 Z"
       style="fill:#ffffff;fill-opacity:1;stroke-width:0.264583"
       id="path224"
       inkscape:label="drawing1" />
  </g>
</svg>
