<?xml version="1.0" encoding="UTF-8" standalone="no"?>
<!--Abendiix CC0 - https://abendiix.com-->
<svg
   version="1.1"
   width="15"
   height="15"
   shape-rendering="crispEdges"
   id="svg221"
   sodipodi:docname="change.svg"
   inkscape:version="1.3.2 (091e20ef0f, 2023-11-25, custom)"
   xmlns:inkscape="http://www.inkscape.org/namespaces/inkscape"
   xmlns:sodipodi="http://sodipodi.sourceforge.net/DTD/sodipodi-0.dtd"
   xmlns="http://www.w3.org/2000/svg"
   xmlns:svg="http://www.w3.org/2000/svg">
  <defs
     id="defs221" />
  <sodipodi:namedview
     id="namedview221"
     pagecolor="#ffffff"
     bordercolor="#000000"
     borderopacity="0.25"
     inkscape:showpageshadow="2"
     inkscape:pageopacity="0.0"
     inkscape:pagecheckerboard="0"
     inkscape:deskcolor="#d1d1d1"
     inkscape:zoom="39.2"
     inkscape:cx="7.5"
     inkscape:cy="7.5"
     inkscape:window-width="1536"
     inkscape:window-height="792"
     inkscape:window-x="0"
     inkscape:window-y="0"
     inkscape:window-maximized="1"
     inkscape:current-layer="svg221" />
  <rect
     x="1"
     y="1"
     width="13"
     height="13"
     fill="#fa0028"
     id="rect31"
     style="stroke-width:13"
     inkscape:label="background" />
  <path
     d="m 1,0 v 1 h 1 1 1 1 1 1 1 1 1 1 1 1 1 V 0 H 13 12 11 10 9 8 7 6 5 4 3 2 Z m 13,1 v 1 1 1 1 1 1 1 1 1 1 1 1 1 h 1 V 13 12 11 10 9 8 7 6 5 4 3 2 1 Z m 0,13 H 13 12 11 10 9 8 7 6 5 4 3 2 1 v 1 h 1 1 1 1 1 1 1 1 1 1 1 1 1 z M 1,14 V 13 12 11 10 9 8 7 6 5 4 3 2 1 H 0 v 1 1 1 1 1 1 1 1 1 1 1 1 1 z"
     style=""
     id="path221"
     inkscape:label="frame" />
  <path
     d="m 5,2 v 1 h 1 1 1 1 1 V 2 H 9 8 7 6 Z m 5,1 v 1 h 1 V 3 Z m 1,1 V 5 H 10 9 v 1 h 1 1 1 1 V 5 4 3 2 H 12 V 3 4 Z M 5,3 H 4 V 4 H 5 Z M 4,4 H 3 V 5 H 4 Z M 3,5 H 2 v 1 1 1 1 1 H 3 V 9 8 7 6 Z m 0,5 v 1 h 1 v -1 z m 1,1 v 1 h 1 v -1 z m 1,1 v 1 h 1 1 1 1 1 V 12 H 9 8 7 6 Z m 5,0 h 1 v -1 h -1 z m 1,-1 h 1 v -1 h -1 z m 1,-1 h 1 V 9 8 h -1 v 1 z"
     style="fill:#ffffff"
     id="path222"
     inkscape:label="drawing" />
</svg>
