<?xml version="1.0" encoding="UTF-8" ?>
<svg version="1.1" width="150" height="150" xmlns="http://www.w3.org/2000/svg" shape-rendering="crispEdges">
<rect x="30" y="40" width="10" height="10" fill="#FFFFFF" />
<rect x="40" y="40" width="10" height="10" fill="#FFFFFF" />
<rect x="100" y="40" width="10" height="10" fill="#FFFFFF" />
<rect x="110" y="40" width="10" height="10" fill="#FFFFFF" />
<rect x="30" y="50" width="10" height="10" fill="#FFFFFF" />
<rect x="40" y="50" width="10" height="10" fill="#FFFFFF" />
<rect x="50" y="50" width="10" height="10" fill="#FFFFFF" />
<rect x="90" y="50" width="10" height="10" fill="#FFFFFF" />
<rect x="100" y="50" width="10" height="10" fill="#FFFFFF" />
<rect x="110" y="50" width="10" height="10" fill="#FFFFFF" />
<rect x="40" y="60" width="10" height="10" fill="#FFFFFF" />
<rect x="50" y="60" width="10" height="10" fill="#FFFFFF" />
<rect x="60" y="60" width="10" height="10" fill="#FFFFFF" />
<rect x="80" y="60" width="10" height="10" fill="#FFFFFF" />
<rect x="90" y="60" width="10" height="10" fill="#FFFFFF" />
<rect x="100" y="60" width="10" height="10" fill="#FFFFFF" />
<rect x="50" y="70" width="10" height="10" fill="#FFFFFF" />
<rect x="60" y="70" width="10" height="10" fill="#FFFFFF" />
<rect x="70" y="70" width="10" height="10" fill="#FFFFFF" />
<rect x="80" y="70" width="10" height="10" fill="#FFFFFF" />
<rect x="90" y="70" width="10" height="10" fill="#FFFFFF" />
<rect x="60" y="80" width="10" height="10" fill="#FFFFFF" />
<rect x="70" y="80" width="10" height="10" fill="#FFFFFF" />
<rect x="80" y="80" width="10" height="10" fill="#FFFFFF" />
<rect x="70" y="90" width="10" height="10" fill="#FFFFFF" />
</svg>