<?xml version="1.0" encoding="UTF-8" standalone="no"?>
<!-- Generator: Adobe Illustrator 24.1.0, SVG Export Plug-In . SVG Version: 6.00 Build 0)  -->

<svg
   version="1.1"
   id="Layer_1"
   shape-rendering="crispEdges"
   x="0px"
   y="0px"
   viewBox="0 0 15 15"
   style="enable-background:new 0 0 15 15;"
   xml:space="preserve"
   sodipodi:docname="pattern.svg"
   inkscape:version="1.3.2 (091e20ef0f, 2023-11-25, custom)"
   xmlns:inkscape="http://www.inkscape.org/namespaces/inkscape"
   xmlns:sodipodi="http://sodipodi.sourceforge.net/DTD/sodipodi-0.dtd"
   xmlns="http://www.w3.org/2000/svg"
   xmlns:svg="http://www.w3.org/2000/svg"><defs
   id="defs221" /><sodipodi:namedview
   id="namedview221"
   pagecolor="#ffffff"
   bordercolor="#000000"
   borderopacity="0.25"
   inkscape:showpageshadow="2"
   inkscape:pageopacity="0.0"
   inkscape:pagecheckerboard="0"
   inkscape:deskcolor="#d1d1d1"
   inkscape:zoom="39.2"
   inkscape:cx="7.5"
   inkscape:cy="7.5"
   inkscape:window-width="1536"
   inkscape:window-height="792"
   inkscape:window-x="0"
   inkscape:window-y="0"
   inkscape:window-maximized="1"
   inkscape:current-layer="Layer_1" />
<style
   type="text/css"
   id="style1">
	.st0{fill:#FA0028;}
	.st1{fill:#FFFFFF;}
</style>
<path
   d="m 1,0 v 1 h 1 1 1 1 1 1 1 1 1 1 1 1 1 V 0 H 13 12 11 10 9 8 7 6 5 4 3 2 Z m 13,1 v 1 1 1 1 1 1 1 1 1 1 1 1 1 h 1 V 13 12 11 10 9 8 7 6 5 4 3 2 1 Z m 0,13 H 13 12 11 10 9 8 7 6 5 4 3 2 1 v 1 h 1 1 1 1 1 1 1 1 1 1 1 1 1 z M 1,14 V 13 12 11 10 9 8 7 6 5 4 3 2 1 H 0 v 1 1 1 1 1 1 1 1 1 1 1 1 1 z"
   style=""
   id="path221"
   inkscape:label="frame" />















<path
   d="M 3,1 V 2 H 4 V 3 H 5 V 2 H 6 V 1 H 5 4 Z m 6,0 v 1 h 1 v 1 h 1 V 2 h 1 V 1 H 11 10 Z M 2,3 V 4 H 1 V 5 6 7 H 2 V 6 H 3 V 5 H 4 V 4 H 3 V 3 Z m 10,0 v 1 h -1 v 1 h 1 v 1 h 1 v 1 h 1 V 6 5 4 H 13 V 3 Z M 3,7 V 8 H 2 v 1 h 1 v 1 h 1 v 1 H 5 V 10 H 6 V 9 H 7 V 8 H 6 V 7 H 5 V 8 H 4 V 7 Z M 9,7 V 8 H 8 v 1 h 1 v 1 h 1 v 1 h 1 v -1 h 1 V 9 h 1 V 8 H 12 V 7 H 11 V 8 H 10 V 7 Z m -7,4 v 1 H 1 v 1 1 H 2 3 V 13 H 4 V 12 H 3 v -1 z m 4,0 v 1 H 5 v 1 h 1 v 1 h 1 1 1 v -1 h 1 V 12 H 9 V 11 H 8 v 1 H 7 v -1 z m 6,0 v 1 h -1 v 1 h 1 v 1 h 1 1 v -1 -1 h -1 v -1 z"
   style="fill:#ffffff"
   id="path223"
   inkscape:label="background" />

















































<path
   d="M 6,3 V 4 H 5 V 5 H 6 V 6 H 7 V 7 H 8 V 6 H 9 V 5 h 1 V 4 H 9 V 3 H 8 V 4 H 7 V 3 Z"
   style=""
   id="path224"
   inkscape:label="drawing1" />
































































<path
   d="M 1,1 V 2 3 4 H 2 V 3 H 3 V 4 H 4 V 5 H 3 V 6 H 2 V 7 H 1 v 1 1 1 1 1 h 1 v -1 h 1 v 1 h 1 v 1 H 3 v 1 H 4 5 6 V 13 H 5 v -1 h 1 v -1 h 1 v 1 h 1 v -1 h 1 v 1 h 1 v 1 H 9 v 1 h 1 1 1 v -1 h -1 v -1 h 1 v -1 h 1 v 1 h 1 V 11 10 9 8 7 H 13 V 6 H 12 V 5 H 11 V 4 h 1 V 3 h 1 v 1 h 1 V 3 2 1 H 13 12 V 2 H 11 V 3 H 10 V 2 H 9 V 1 H 8 7 6 V 2 H 5 V 3 H 4 V 2 H 3 V 1 H 2 Z M 6,3 H 7 V 4 H 8 V 3 h 1 v 1 h 1 V 5 H 9 V 6 H 8 V 7 H 7 V 6 H 6 V 5 H 5 V 4 H 6 Z M 3,7 H 4 V 8 H 5 V 7 H 6 V 8 H 7 V 9 H 6 v 1 H 5 v 1 H 4 V 10 H 3 V 9 H 2 V 8 h 1 z m 6,0 h 1 v 1 h 1 V 7 h 1 v 1 h 1 v 1 h -1 v 1 h -1 v 1 H 10 V 10 H 9 V 9 H 8 V 8 h 1 z"
   style="fill:#fa0028"
   id="path222"
   inkscape:label="drawing2" />

























































































</svg>
