<?xml version="1.0" encoding="UTF-8" standalone="no"?>
<!-- Generator: Adobe Illustrator 24.1.0, SVG Export Plug-In . SVG Version: 6.00 Build 0)  -->

<svg
   version="1.1"
   id="Layer_1"
   shape-rendering="crispEdges"
   x="0px"
   y="0px"
   viewBox="0 0 15 15"
   style="enable-background:new 0 0 15 15;"
   xml:space="preserve"
   sodipodi:docname="size.svg"
   inkscape:version="1.3.2 (091e20ef0f, 2023-11-25, custom)"
   xmlns:inkscape="http://www.inkscape.org/namespaces/inkscape"
   xmlns:sodipodi="http://sodipodi.sourceforge.net/DTD/sodipodi-0.dtd"
   xmlns="http://www.w3.org/2000/svg"
   xmlns:svg="http://www.w3.org/2000/svg"><defs
   id="defs221" /><sodipodi:namedview
   id="namedview221"
   pagecolor="#ffffff"
   bordercolor="#000000"
   borderopacity="0.25"
   inkscape:showpageshadow="2"
   inkscape:pageopacity="0.0"
   inkscape:pagecheckerboard="0"
   inkscape:deskcolor="#d1d1d1"
   inkscape:zoom="39.2"
   inkscape:cx="7.5"
   inkscape:cy="7.372449"
   inkscape:window-width="1536"
   inkscape:window-height="792"
   inkscape:window-x="0"
   inkscape:window-y="0"
   inkscape:window-maximized="1"
   inkscape:current-layer="Layer_1" />
<style
   type="text/css"
   id="style1">
	.st0{fill:#FA0028;}
	.st1{fill:#FFFFFF;}
</style>







<rect
   x="1"
   y="1"
   class="st0"
   width="13"
   height="13"
   id="rect15"
   style="fill:#fa0028;stroke-width:13"
   inkscape:label="background" />








































































<path
   d="m 5,5 v 1 1 1 1 h 1 v 1 h 1 1 1 1 V 9 8 7 6 H 9 V 5 H 8 7 6 Z"
   style=""
   id="path224"
   inkscape:label="drawing1" />

<path
   d="m 10,2 v 1 h 1 v 1 h 1 v 1 h 1 V 4 3 2 h -1 -1 z m 1,2 h -1 v 1 h 1 z M 10,5 H 9 v 1 h 1 z"
   style="fill:#ffffff"
   id="path225"
   inkscape:label="drawing2" />


































































































<path
   d="m 5,9 v 1 H 6 V 9 Z m 0,1 H 4 v 1 H 5 Z M 4,11 H 3 V 10 H 2 v 1 1 1 H 3 4 5 V 12 H 4 Z"
   style="fill:#ffffff"
   id="path226"
   inkscape:label="drawing3" />


























<path
   d="m 1,0 v 1 h 1 1 1 1 1 1 1 1 1 1 1 1 1 V 0 H 13 12 11 10 9 8 7 6 5 4 3 2 Z m 13,1 v 1 1 1 1 1 1 1 1 1 1 1 1 1 h 1 V 13 12 11 10 9 8 7 6 5 4 3 2 1 Z m 0,13 H 13 12 11 10 9 8 7 6 5 4 3 2 1 v 1 h 1 1 1 1 1 1 1 1 1 1 1 1 1 z M 1,14 V 13 12 11 10 9 8 7 6 5 4 3 2 1 H 0 v 1 1 1 1 1 1 1 1 1 1 1 1 1 z"
   style=""
   id="path227"
   inkscape:label="frame" />












</svg>
