<?xml version="1.0" encoding="UTF-8" standalone="no"?>
<!-- Generator: Adobe Illustrator 24.1.0, SVG Export Plug-In . SVG Version: 6.00 Build 0)  -->

<svg
   version="1.1"
   id="Layer_1"
   shape-rendering="crispEdges"
   x="0px"
   y="0px"
   viewBox="0 0 15 15"
   style="enable-background:new 0 0 15 15;"
   xml:space="preserve"
   sodipodi:docname="wallpaper.svg"
   inkscape:version="1.3.2 (091e20ef0f, 2023-11-25, custom)"
   xmlns:inkscape="http://www.inkscape.org/namespaces/inkscape"
   xmlns:sodipodi="http://sodipodi.sourceforge.net/DTD/sodipodi-0.dtd"
   xmlns="http://www.w3.org/2000/svg"
   xmlns:svg="http://www.w3.org/2000/svg"><defs
   id="defs221" /><sodipodi:namedview
   id="namedview221"
   pagecolor="#ffffff"
   bordercolor="#000000"
   borderopacity="0.25"
   inkscape:showpageshadow="2"
   inkscape:pageopacity="0.0"
   inkscape:pagecheckerboard="0"
   inkscape:deskcolor="#d1d1d1"
   inkscape:zoom="39.2"
   inkscape:cx="7.5"
   inkscape:cy="7.6530612"
   inkscape:window-width="1536"
   inkscape:window-height="792"
   inkscape:window-x="0"
   inkscape:window-y="0"
   inkscape:window-maximized="1"
   inkscape:current-layer="layer1" />
<style
   type="text/css"
   id="style1">
	.st0{fill:#FA0028;}
	.st1{fill:#FFFFFF;}
</style>
<rect
   x="1"
   y="1"
   class="st0"
   width="13"
   height="13"
   id="rect15"
   style="enable-background:new 0 0 15 15;fill:#fa0028;stroke-width:13"
   inkscape:label="background" /><path
   d="m 1,0 v 1 h 1 1 1 1 1 1 1 1 1 1 1 1 1 V 0 H 13 12 11 10 9 8 7 6 5 4 3 2 Z m 13,1 v 1 1 1 1 1 1 1 1 1 1 1 1 1 h 1 V 13 12 11 10 9 8 7 6 5 4 3 2 1 Z m 0,13 H 13 12 11 10 9 8 7 6 5 4 3 2 1 v 1 h 1 1 1 1 1 1 1 1 1 1 1 1 1 z M 1,14 V 13 12 11 10 9 8 7 6 5 4 3 2 1 H 0 v 1 1 1 1 1 1 1 1 1 1 1 1 1 z"
   style=""
   id="path221"
   inkscape:label="frame" />




























































































































































































































<g
   inkscape:groupmode="layer"
   id="layer1"
   inkscape:label="drawing"><path
     d="m 6,9 v 1 H 7 V 9 Z"
     style="enable-background:new 0 0 15 15;fill:#ffffff"
     id="path229"
     inkscape:label="drawing8" /><path
     d="M 8,8 V 9 H 9 V 8 Z"
     style="enable-background:new 0 0 15 15;fill:#ffffff"
     id="path226-3"
     inkscape:label="drawing7" /><path
     d="M 7,7 V 8 H 8 V 7 Z"
     style="enable-background:new 0 0 15 15;fill:#ffffff"
     id="path226"
     inkscape:label="drawing6" /><path
     d="M 4,8 H 5 V 7 H 4 Z"
     style="enable-background:new 0 0 15 15;fill:#ffffff"
     id="path228"
     inkscape:label="drawing5" /><path
     d="M 5,6 V 7 H 6 7 V 6 H 6 Z"
     style="enable-background:new 0 0 15 15;fill:#ffffff"
     id="path227"
     inkscape:label="drawing4" /><path
     d="M 6,4 V 5 H 7 8 V 4 H 7 Z"
     style="enable-background:new 0 0 15 15;fill:#ffffff"
     id="path223"
     inkscape:label="drawing3" /><path
     d="M 4,4 V 5 H 5 V 4 Z"
     style="enable-background:new 0 0 15 15;fill:#ffffff"
     id="path222"
     inkscape:label="drawing2" /><path
     d="m 2,2 v 1 1 1 1 1 1 1 1 1 1 1 h 1 1 1 1 1 1 1 1 1 1 1 V 12 11 10 9 8 7 6 5 4 3 2 H 12 11 10 9 8 7 6 5 4 3 Z m 1,1 h 1 1 1 1 1 1 v 1 1 h 1 V 4 3 h 1 1 v 1 1 h -1 -1 v 1 h 1 1 V 7 8 9 H 11 10 9 v 1 h 1 1 1 v 1 1 H 11 10 9 8 7 6 5 4 3 V 11 10 9 H 4 V 8 H 3 V 7 6 5 4 Z"
     style="enable-background:new 0 0 15 15;fill:#ffffff"
     id="path224"
     inkscape:label="drawing1" /></g></svg>
