<?xml version="1.0" encoding="UTF-8" standalone="no"?>
<!-- Generator: Adobe Illustrator 24.1.0, SVG Export Plug-In . SVG Version: 6.00 Build 0)  -->
<!--Abendiix CC0 - https://abendiix.com-->
<svg
   version="1.1"
   id="Layer_1"
   shape-rendering="crispEdges"
   x="0px"
   y="0px"
   viewBox="0 0 15 15"
   style="enable-background:new 0 0 15 15;"
   xml:space="preserve"
   sodipodi:docname="watermarkdesign.svg"
   inkscape:version="1.3.2 (091e20ef0f, 2023-11-25, custom)"
   xmlns:inkscape="http://www.inkscape.org/namespaces/inkscape"
   xmlns:sodipodi="http://sodipodi.sourceforge.net/DTD/sodipodi-0.dtd"
   xmlns="http://www.w3.org/2000/svg"
   xmlns:svg="http://www.w3.org/2000/svg"><defs
   id="defs221" /><sodipodi:namedview
   id="namedview221"
   pagecolor="#ffffff"
   bordercolor="#000000"
   borderopacity="0.25"
   inkscape:showpageshadow="2"
   inkscape:pageopacity="0.0"
   inkscape:pagecheckerboard="0"
   inkscape:deskcolor="#d1d1d1"
   inkscape:zoom="39.2"
   inkscape:cx="7.1173469"
   inkscape:cy="7.8061224"
   inkscape:window-width="1536"
   inkscape:window-height="792"
   inkscape:window-x="0"
   inkscape:window-y="0"
   inkscape:window-maximized="1"
   inkscape:current-layer="Layer_1" />
<style
   type="text/css"
   id="style1">
	.st0{fill:#FA0028;}
	.st1{fill:#FFFFFF;}
</style>





























<rect
   x="1"
   y="1"
   class="st0"
   width="13"
   height="13"
   id="rect30"
   style="stroke-width:13"
   inkscape:label="background" />































































































































































































<path
   d="m 1,0 v 1 h 1 1 1 1 1 1 1 1 1 1 1 1 1 V 0 H 13 12 11 10 9 8 7 6 5 4 3 2 Z m 13,1 v 1 1 1 1 1 1 1 1 1 1 1 1 1 h 1 V 13 12 11 10 9 8 7 6 5 4 3 2 1 Z m 0,13 H 13 12 11 10 9 8 7 6 5 4 3 2 1 v 1 h 1 1 1 1 1 1 1 1 1 1 1 1 1 z M 1,14 V 13 12 11 10 9 8 7 6 5 4 3 2 1 H 0 v 1 1 1 1 1 1 1 1 1 1 1 1 1 z"
   id="path221"
   inkscape:label="frame" /><path
   d="M 2,3 V 4 5 H 3 4 V 4 H 5 V 3 H 4 3 Z M 4,5 V 6 H 3 2 V 7 H 3 4 5 V 6 5 Z M 6,3 V 4 5 6 7 H 7 V 6 5 H 8 9 V 4 3 H 8 7 Z m 4,0 v 1 1 1 1 h 1 V 6 h 1 V 5 h 1 V 4 3 h -1 -1 z m 2,3 v 1 h 1 V 6 Z M 6,8 V 9 H 5 v 1 h 1 v 1 h 1 v 1 h 1 v -1 h 1 v -1 h 1 V 9 H 9 V 8 H 8 V 9 H 7 V 8 Z"
   style="fill:#ffffff"
   id="path228"
   inkscape:label="sprheart" /></svg>
