<?xml version="1.0" encoding="UTF-8" ?>
<svg version="1.1" width="29" height="4" xmlns="http://www.w3.org/2000/svg" shape-rendering="crispEdges">
<rect x="0" y="0" width="1" height="1" fill="#000000" />
<rect x="1" y="0" width="1" height="1" fill="#000000" />
<rect x="2" y="0" width="1" height="1" fill="#000000" />
<rect x="4" y="0" width="1" height="1" fill="#000000" />
<rect x="5" y="0" width="1" height="1" fill="#000000" />
<rect x="6" y="0" width="1" height="1" fill="#000000" />
<rect x="8" y="0" width="1" height="1" fill="#000000" />
<rect x="9" y="0" width="1" height="1" fill="#000000" />
<rect x="10" y="0" width="1" height="1" fill="#000000" />
<rect x="12" y="0" width="1" height="1" fill="#000000" />
<rect x="13" y="0" width="1" height="1" fill="#000000" />
<rect x="14" y="0" width="1" height="1" fill="#000000" />
<rect x="16" y="0" width="1" height="1" fill="#000000" />
<rect x="17" y="0" width="1" height="1" fill="#000000" />
<rect x="18" y="0" width="1" height="1" fill="#000000" />
<rect x="20" y="0" width="1" height="1" fill="#000000" />
<rect x="21" y="0" width="1" height="1" fill="#000000" />
<rect x="22" y="0" width="1" height="1" fill="#000000" />
<rect x="25" y="0" width="1" height="1" fill="#FF0000" />
<rect x="27" y="0" width="1" height="1" fill="#FF0000" />
<rect x="0" y="1" width="1" height="1" fill="#000000" />
<rect x="1" y="1" width="1" height="1" fill="#000000" />
<rect x="4" y="1" width="1" height="1" fill="#000000" />
<rect x="5" y="1" width="1" height="1" fill="#000000" />
<rect x="6" y="1" width="1" height="1" fill="#000000" />
<rect x="8" y="1" width="1" height="1" fill="#000000" />
<rect x="9" y="1" width="1" height="1" fill="#000000" />
<rect x="10" y="1" width="1" height="1" fill="#000000" />
<rect x="13" y="1" width="1" height="1" fill="#000000" />
<rect x="17" y="1" width="1" height="1" fill="#000000" />
<rect x="20" y="1" width="1" height="1" fill="#000000" />
<rect x="21" y="1" width="1" height="1" fill="#000000" />
<rect x="24" y="1" width="1" height="1" fill="#FF0000" />
<rect x="25" y="1" width="1" height="1" fill="#FF0000" />
<rect x="26" y="1" width="1" height="1" fill="#FF0000" />
<rect x="27" y="1" width="1" height="1" fill="#FF0000" />
<rect x="28" y="1" width="1" height="1" fill="#FF0000" />
<rect x="2" y="2" width="1" height="1" fill="#000000" />
<rect x="4" y="2" width="1" height="1" fill="#000000" />
<rect x="8" y="2" width="1" height="1" fill="#000000" />
<rect x="9" y="2" width="1" height="1" fill="#000000" />
<rect x="13" y="2" width="1" height="1" fill="#000000" />
<rect x="17" y="2" width="1" height="1" fill="#000000" />
<rect x="20" y="2" width="1" height="1" fill="#000000" />
<rect x="25" y="2" width="1" height="1" fill="#FF0000" />
<rect x="26" y="2" width="1" height="1" fill="#FF0000" />
<rect x="27" y="2" width="1" height="1" fill="#FF0000" />
<rect x="0" y="3" width="1" height="1" fill="#000000" />
<rect x="1" y="3" width="1" height="1" fill="#000000" />
<rect x="2" y="3" width="1" height="1" fill="#000000" />
<rect x="4" y="3" width="1" height="1" fill="#000000" />
<rect x="8" y="3" width="1" height="1" fill="#000000" />
<rect x="10" y="3" width="1" height="1" fill="#000000" />
<rect x="12" y="3" width="1" height="1" fill="#000000" />
<rect x="13" y="3" width="1" height="1" fill="#000000" />
<rect x="14" y="3" width="1" height="1" fill="#000000" />
<rect x="17" y="3" width="1" height="1" fill="#000000" />
<rect x="20" y="3" width="1" height="1" fill="#000000" />
<rect x="21" y="3" width="1" height="1" fill="#000000" />
<rect x="22" y="3" width="1" height="1" fill="#000000" />
<rect x="26" y="3" width="1" height="1" fill="#FF0000" />
</svg>